<mxfile host="app.diagrams.net" modified="2020-09-29T12:44:17.977Z" agent="5.0 (Macintosh; Intel Mac OS X 10_15_6) AppleWebKit/605.1.15 (KHTML, like Gecko) Version/14.0 Safari/605.1.15" etag="3BVSfjM_F82LmsjZnE5o" version="13.7.6" type="github">
  <diagram name="Page-1" id="5f0bae14-7c28-e335-631c-24af17079c00">
    <mxGraphModel dx="786" dy="562" grid="0" gridSize="10" guides="1" tooltips="1" connect="1" arrows="1" fold="1" page="1" pageScale="1" pageWidth="1100" pageHeight="850" background="none" math="0" shadow="0">
      <root>
        <mxCell id="0" />
        <mxCell id="1" parent="0" />
        <mxCell id="Oh-3adqw7K7T8iNf7OZb-41" value="" style="group" parent="1" vertex="1" connectable="0">
          <mxGeometry x="557" y="374" width="473" height="488" as="geometry" />
        </mxCell>
        <mxCell id="Oh-3adqw7K7T8iNf7OZb-3" value="Database Server" style="rounded=0;whiteSpace=wrap;html=1;verticalAlign=top;align=left;container=1;" parent="Oh-3adqw7K7T8iNf7OZb-41" vertex="1">
          <mxGeometry x="-6" y="-110" width="473" height="488" as="geometry" />
        </mxCell>
        <mxCell id="Oh-3adqw7K7T8iNf7OZb-18" value="&lt;p style=&quot;margin: 0px ; margin-top: 6px ; text-align: center&quot;&gt;&lt;b&gt;Verify Login&lt;/b&gt;&lt;/p&gt;&lt;hr&gt;&lt;p style=&quot;margin: 0px ; margin-left: 8px&quot;&gt;+ Person Number&lt;br&gt;+ Password&lt;/p&gt;" style="align=left;overflow=fill;html=1;dropTarget=0;" parent="Oh-3adqw7K7T8iNf7OZb-3" vertex="1">
          <mxGeometry x="13.64" y="36" width="156.67" height="78.24" as="geometry" />
        </mxCell>
        <mxCell id="Oh-3adqw7K7T8iNf7OZb-19" value="" style="shape=component;jettyWidth=8;jettyHeight=4;" parent="Oh-3adqw7K7T8iNf7OZb-18" vertex="1">
          <mxGeometry x="1" width="20" height="20" relative="1" as="geometry">
            <mxPoint x="-24" y="4" as="offset" />
          </mxGeometry>
        </mxCell>
        <mxCell id="Oh-3adqw7K7T8iNf7OZb-38" value="Dining Hall Specific Data" style="shape=folder;fontStyle=1;spacingTop=10;tabWidth=40;tabHeight=14;tabPosition=left;html=1;align=left;verticalAlign=top;" parent="Oh-3adqw7K7T8iNf7OZb-3" vertex="1">
          <mxGeometry x="200" y="14.330000000000013" width="267.05" height="292.07" as="geometry" />
        </mxCell>
        <mxCell id="Oh-3adqw7K7T8iNf7OZb-39" value="&lt;p style=&quot;margin: 0px ; margin-top: 6px ; text-align: center&quot;&gt;&lt;b&gt;Booking Info&lt;/b&gt;&lt;/p&gt;&lt;hr&gt;&lt;p style=&quot;margin: 0px ; margin-left: 8px&quot;&gt;+ Cuisine&amp;nbsp;&lt;/p&gt;" style="align=left;overflow=fill;html=1;dropTarget=0;" parent="Oh-3adqw7K7T8iNf7OZb-3" vertex="1">
          <mxGeometry x="229" y="63" width="195.17" height="55.69" as="geometry" />
        </mxCell>
        <mxCell id="Oh-3adqw7K7T8iNf7OZb-40" value="" style="shape=component;jettyWidth=8;jettyHeight=4;" parent="Oh-3adqw7K7T8iNf7OZb-39" vertex="1">
          <mxGeometry x="1" width="20" height="20" relative="1" as="geometry">
            <mxPoint x="-24" y="4" as="offset" />
          </mxGeometry>
        </mxCell>
        <mxCell id="Oh-3adqw7K7T8iNf7OZb-21" value="&lt;p style=&quot;margin: 0px ; margin-top: 6px ; text-align: center&quot;&gt;&lt;b&gt;Staff Info&lt;/b&gt;&lt;/p&gt;&lt;hr&gt;&lt;p style=&quot;margin: 0px ; margin-left: 8px&quot;&gt;+ Dining hall name Name&lt;br&gt;+ Staff numbers&amp;nbsp;&lt;/p&gt;" style="align=left;overflow=fill;html=1;dropTarget=0;" parent="Oh-3adqw7K7T8iNf7OZb-3" vertex="1">
          <mxGeometry x="235.53" y="207" width="195.98" height="74" as="geometry" />
        </mxCell>
        <mxCell id="Oh-3adqw7K7T8iNf7OZb-22" value="" style="shape=component;jettyWidth=8;jettyHeight=4;" parent="Oh-3adqw7K7T8iNf7OZb-21" vertex="1">
          <mxGeometry x="1" width="20" height="20" relative="1" as="geometry">
            <mxPoint x="-24" y="4" as="offset" />
          </mxGeometry>
        </mxCell>
        <mxCell id="ww1-IJT1YyGTjQz6Kq0K-1" value="&lt;p style=&quot;margin: 0px ; margin-top: 6px ; text-align: center&quot;&gt;&lt;b&gt;Review Info&lt;/b&gt;&lt;/p&gt;&lt;hr&gt;&lt;p style=&quot;margin: 0px ; margin-left: 8px&quot;&gt;+ Review Score&lt;br&gt;+ Comment&amp;nbsp;&lt;/p&gt;" style="align=left;overflow=fill;html=1;dropTarget=0;" parent="Oh-3adqw7K7T8iNf7OZb-3" vertex="1">
          <mxGeometry x="231.12" y="125" width="190.94" height="72" as="geometry" />
        </mxCell>
        <mxCell id="ww1-IJT1YyGTjQz6Kq0K-2" value="" style="shape=component;jettyWidth=8;jettyHeight=4;" parent="ww1-IJT1YyGTjQz6Kq0K-1" vertex="1">
          <mxGeometry x="1" width="20" height="20" relative="1" as="geometry">
            <mxPoint x="-24" y="4" as="offset" />
          </mxGeometry>
        </mxCell>
        <mxCell id="ww1-IJT1YyGTjQz6Kq0K-15" value="" style="rounded=0;orthogonalLoop=1;jettySize=auto;html=1;endArrow=halfCircle;endFill=0;endSize=6;strokeWidth=1;exitX=0;exitY=1;exitDx=0;exitDy=0;" parent="Oh-3adqw7K7T8iNf7OZb-3" source="Oh-3adqw7K7T8iNf7OZb-39" target="ww1-IJT1YyGTjQz6Kq0K-16" edge="1">
          <mxGeometry relative="1" as="geometry">
            <mxPoint x="6" y="350" as="sourcePoint" />
          </mxGeometry>
        </mxCell>
        <mxCell id="ww1-IJT1YyGTjQz6Kq0K-16" value="" style="ellipse;whiteSpace=wrap;html=1;fontFamily=Helvetica;fontSize=12;fontColor=#000000;align=center;strokeColor=#000000;fillColor=#ffffff;points=[];aspect=fixed;resizable=0;" parent="Oh-3adqw7K7T8iNf7OZb-3" vertex="1">
          <mxGeometry x="143" y="131" width="10" height="10" as="geometry" />
        </mxCell>
        <mxCell id="ww1-IJT1YyGTjQz6Kq0K-10" value="" style="ellipse;whiteSpace=wrap;html=1;fontFamily=Helvetica;fontSize=12;fontColor=#000000;align=center;strokeColor=#000000;fillColor=#ffffff;points=[];aspect=fixed;resizable=0;" parent="Oh-3adqw7K7T8iNf7OZb-3" vertex="1">
          <mxGeometry x="91.99578947368423" y="161.00383386581473" width="10" height="10" as="geometry" />
        </mxCell>
        <mxCell id="ww1-IJT1YyGTjQz6Kq0K-9" value="" style="rounded=0;orthogonalLoop=1;jettySize=auto;html=1;endArrow=halfCircle;endFill=0;endSize=6;strokeWidth=1;exitX=0;exitY=0.5;exitDx=0;exitDy=0;" parent="Oh-3adqw7K7T8iNf7OZb-3" source="ww1-IJT1YyGTjQz6Kq0K-1" target="ww1-IJT1YyGTjQz6Kq0K-10" edge="1">
          <mxGeometry relative="1" as="geometry">
            <mxPoint x="6.99578947368421" y="467.03514376996804" as="sourcePoint" />
          </mxGeometry>
        </mxCell>
        <mxCell id="ww1-IJT1YyGTjQz6Kq0K-60" value="Update" style="edgeLabel;html=1;align=center;verticalAlign=middle;resizable=0;points=[];" parent="Oh-3adqw7K7T8iNf7OZb-3" vertex="1" connectable="0">
          <mxGeometry x="188.9973203405964" y="128.00181583094707" as="geometry" />
        </mxCell>
        <mxCell id="ww1-IJT1YyGTjQz6Kq0K-59" value="Update" style="edgeLabel;html=1;align=center;verticalAlign=middle;resizable=0;points=[];" parent="Oh-3adqw7K7T8iNf7OZb-3" vertex="1" connectable="0">
          <mxGeometry x="142.9973203405964" y="164.00181583094707" as="geometry" />
        </mxCell>
        <mxCell id="ww1-IJT1YyGTjQz6Kq0K-64" value="&lt;p style=&quot;margin: 0px ; margin-top: 6px ; text-align: center&quot;&gt;&lt;b&gt;Book Data&lt;/b&gt;&lt;/p&gt;&lt;hr&gt;&lt;p style=&quot;margin: 0px ; margin-left: 8px&quot;&gt;+ Tile&lt;br&gt;+ Picture(s)&lt;/p&gt;&lt;p style=&quot;margin: 0px ; margin-left: 8px&quot;&gt;+ Price&lt;/p&gt;&lt;p style=&quot;margin: 0px ; margin-left: 8px&quot;&gt;+ Seller&lt;/p&gt;&lt;p style=&quot;margin: 0px ; margin-left: 8px&quot;&gt;+ User Account Balnce&lt;/p&gt;" style="align=left;overflow=fill;html=1;dropTarget=0;" parent="Oh-3adqw7K7T8iNf7OZb-3" vertex="1">
          <mxGeometry x="17" y="246" width="156.67" height="110" as="geometry" />
        </mxCell>
        <mxCell id="ww1-IJT1YyGTjQz6Kq0K-65" value="" style="shape=component;jettyWidth=8;jettyHeight=4;" parent="ww1-IJT1YyGTjQz6Kq0K-64" vertex="1">
          <mxGeometry x="1" width="20" height="20" relative="1" as="geometry">
            <mxPoint x="-24" y="4" as="offset" />
          </mxGeometry>
        </mxCell>
        <mxCell id="Oh-3adqw7K7T8iNf7OZb-20" value="" style="group" parent="1" vertex="1" connectable="0">
          <mxGeometry x="52" y="320" width="407" height="397" as="geometry" />
        </mxCell>
        <mxCell id="Oh-3adqw7K7T8iNf7OZb-1" value="Student Device" style="rounded=0;whiteSpace=wrap;html=1;verticalAlign=top;align=left;" parent="Oh-3adqw7K7T8iNf7OZb-20" vertex="1">
          <mxGeometry width="407" height="340.53777777777776" as="geometry" />
        </mxCell>
        <mxCell id="Oh-3adqw7K7T8iNf7OZb-12" value="&lt;p style=&quot;margin: 0px ; margin-top: 6px ; text-align: center&quot;&gt;&lt;b&gt;Login&lt;/b&gt;&lt;/p&gt;&lt;hr&gt;&lt;p style=&quot;margin: 0px ; margin-left: 8px&quot;&gt;+ Person Number&lt;br&gt;+ Password&lt;/p&gt;" style="align=left;overflow=fill;html=1;dropTarget=0;" parent="Oh-3adqw7K7T8iNf7OZb-20" vertex="1">
          <mxGeometry x="8.16" y="29.99" width="160.15" height="73.01" as="geometry" />
        </mxCell>
        <mxCell id="Oh-3adqw7K7T8iNf7OZb-13" value="" style="shape=component;jettyWidth=8;jettyHeight=4;" parent="Oh-3adqw7K7T8iNf7OZb-12" vertex="1">
          <mxGeometry x="1" width="20" height="20" relative="1" as="geometry">
            <mxPoint x="-24" y="4" as="offset" />
          </mxGeometry>
        </mxCell>
        <mxCell id="Oh-3adqw7K7T8iNf7OZb-16" value="&lt;p style=&quot;margin: 0px ; margin-top: 6px ; text-align: center&quot;&gt;&lt;b&gt;Book Dining Hall&lt;/b&gt;&lt;/p&gt;&lt;hr&gt;&lt;p style=&quot;margin: 0px ; margin-left: 8px&quot;&gt;+&amp;nbsp;Book meal at specific dining hall&lt;/p&gt;&lt;p style=&quot;margin: 0px ; margin-left: 8px&quot;&gt;+ Choose Cuisine&amp;nbsp;&lt;/p&gt;" style="align=left;overflow=fill;html=1;dropTarget=0;" parent="Oh-3adqw7K7T8iNf7OZb-20" vertex="1">
          <mxGeometry x="195.85" y="30" width="195.85" height="79" as="geometry" />
        </mxCell>
        <mxCell id="Oh-3adqw7K7T8iNf7OZb-17" value="" style="shape=component;jettyWidth=8;jettyHeight=4;" parent="Oh-3adqw7K7T8iNf7OZb-16" vertex="1">
          <mxGeometry x="1" width="20" height="20" relative="1" as="geometry">
            <mxPoint x="-24" y="4" as="offset" />
          </mxGeometry>
        </mxCell>
        <mxCell id="ww1-IJT1YyGTjQz6Kq0K-3" value="&lt;p style=&quot;margin: 0px ; margin-top: 6px ; text-align: center&quot;&gt;&lt;b&gt;Review Meal&lt;/b&gt;&lt;/p&gt;&lt;hr&gt;&lt;p style=&quot;margin: 0px ; margin-left: 8px&quot;&gt;+ Review Score&lt;br&gt;+ Short Comment&amp;nbsp;&lt;/p&gt;" style="align=left;overflow=fill;html=1;dropTarget=0;" parent="Oh-3adqw7K7T8iNf7OZb-20" vertex="1">
          <mxGeometry x="198.91" y="122" width="189.73" height="74" as="geometry" />
        </mxCell>
        <mxCell id="ww1-IJT1YyGTjQz6Kq0K-4" value="" style="shape=component;jettyWidth=8;jettyHeight=4;" parent="ww1-IJT1YyGTjQz6Kq0K-3" vertex="1">
          <mxGeometry x="1" width="20" height="20" relative="1" as="geometry">
            <mxPoint x="-24" y="4" as="offset" />
          </mxGeometry>
        </mxCell>
        <mxCell id="ww1-IJT1YyGTjQz6Kq0K-54" value="&lt;p style=&quot;margin: 0px ; margin-top: 6px ; text-align: center&quot;&gt;&lt;b&gt;Buy Text Book&lt;/b&gt;&lt;/p&gt;&lt;hr&gt;&lt;p style=&quot;margin: 0px ; margin-left: 8px&quot;&gt;+ See Book Title&lt;br&gt;+ See Book Picture(s)&lt;/p&gt;&lt;p style=&quot;margin: 0px ; margin-left: 8px&quot;&gt;+ See book Price&amp;nbsp;&lt;/p&gt;&lt;p style=&quot;margin: 0px ; margin-left: 8px&quot;&gt;+ Purchase Book Ability&lt;/p&gt;&lt;p style=&quot;margin: 0px ; margin-left: 8px&quot;&gt;+ See Account Balance &amp;nbsp;&lt;/p&gt;" style="align=left;overflow=fill;html=1;dropTarget=0;" parent="Oh-3adqw7K7T8iNf7OZb-20" vertex="1">
          <mxGeometry x="11" y="119" width="171" height="110" as="geometry" />
        </mxCell>
        <mxCell id="ww1-IJT1YyGTjQz6Kq0K-55" value="" style="shape=component;jettyWidth=8;jettyHeight=4;" parent="ww1-IJT1YyGTjQz6Kq0K-54" vertex="1">
          <mxGeometry x="1" width="20" height="20" relative="1" as="geometry">
            <mxPoint x="-24" y="4" as="offset" />
          </mxGeometry>
        </mxCell>
        <mxCell id="ww1-IJT1YyGTjQz6Kq0K-56" value="&lt;p style=&quot;margin: 0px ; margin-top: 6px ; text-align: center&quot;&gt;&lt;b&gt;Sell Text Book&lt;/b&gt;&lt;/p&gt;&lt;hr&gt;&lt;p style=&quot;margin: 0px ; margin-left: 8px&quot;&gt;+ Write Book Title&lt;br&gt;+ Upload Book Picture(s)&lt;/p&gt;&lt;p style=&quot;margin: 0px ; margin-left: 8px&quot;&gt;+ Set book Price &amp;nbsp;&amp;nbsp;&lt;/p&gt;" style="align=left;overflow=fill;html=1;dropTarget=0;" parent="Oh-3adqw7K7T8iNf7OZb-20" vertex="1">
          <mxGeometry x="194" y="214" width="190" height="83" as="geometry" />
        </mxCell>
        <mxCell id="ww1-IJT1YyGTjQz6Kq0K-57" value="" style="shape=component;jettyWidth=8;jettyHeight=4;" parent="ww1-IJT1YyGTjQz6Kq0K-56" vertex="1">
          <mxGeometry x="1" width="20" height="20" relative="1" as="geometry">
            <mxPoint x="-24" y="4" as="offset" />
          </mxGeometry>
        </mxCell>
        <mxCell id="Oh-3adqw7K7T8iNf7OZb-26" value="" style="group;strokeColor=#6c8ebf;fillColor=#DAE8FC;" parent="1" vertex="1" connectable="0">
          <mxGeometry x="666" y="34" width="389" height="140" as="geometry" />
        </mxCell>
        <mxCell id="Oh-3adqw7K7T8iNf7OZb-5" value="Dining hall staff device" style="rounded=0;whiteSpace=wrap;html=1;align=left;horizontal=1;verticalAlign=top;" parent="Oh-3adqw7K7T8iNf7OZb-26" vertex="1">
          <mxGeometry width="389.0000000000001" height="140" as="geometry" />
        </mxCell>
        <mxCell id="Oh-3adqw7K7T8iNf7OZb-14" value="&lt;p style=&quot;margin: 0px ; margin-top: 6px ; text-align: center&quot;&gt;&lt;b&gt;Login&lt;/b&gt;&lt;/p&gt;&lt;hr&gt;&lt;p style=&quot;margin: 0px ; margin-left: 8px&quot;&gt;+ Person Number: Number&lt;br&gt;+ Password: String&lt;/p&gt;" style="align=left;overflow=fill;html=1;dropTarget=0;" parent="Oh-3adqw7K7T8iNf7OZb-26" vertex="1">
          <mxGeometry x="14.524020887728462" y="33.643410852713174" width="161.8260313315927" height="73.79844961240309" as="geometry" />
        </mxCell>
        <mxCell id="Oh-3adqw7K7T8iNf7OZb-15" value="" style="shape=component;jettyWidth=8;jettyHeight=4;" parent="Oh-3adqw7K7T8iNf7OZb-14" vertex="1">
          <mxGeometry x="1" width="20" height="20" relative="1" as="geometry">
            <mxPoint x="-24" y="4" as="offset" />
          </mxGeometry>
        </mxCell>
        <mxCell id="Oh-3adqw7K7T8iNf7OZb-23" value="&lt;p style=&quot;margin: 0px ; margin-top: 6px ; text-align: center&quot;&gt;&lt;b&gt;See Meal Info&lt;/b&gt;&lt;/p&gt;&lt;hr&gt;&lt;p style=&quot;margin: 0px ; margin-left: 8px&quot;&gt;+ Date&lt;br&gt;+ Meal type&lt;/p&gt;&lt;p style=&quot;margin: 0px ; margin-left: 8px&quot;&gt;+ Total Number of booked meals&lt;/p&gt;" style="align=left;overflow=fill;html=1;dropTarget=0;" parent="Oh-3adqw7K7T8iNf7OZb-26" vertex="1">
          <mxGeometry x="190.86933333333337" y="33.643410852713174" width="187.75733333333338" height="88.99224806201549" as="geometry" />
        </mxCell>
        <mxCell id="Oh-3adqw7K7T8iNf7OZb-24" value="" style="shape=component;jettyWidth=8;jettyHeight=4;" parent="Oh-3adqw7K7T8iNf7OZb-23" vertex="1">
          <mxGeometry x="1" width="20" height="20" relative="1" as="geometry">
            <mxPoint x="-24" y="4" as="offset" />
          </mxGeometry>
        </mxCell>
        <mxCell id="Oh-3adqw7K7T8iNf7OZb-27" value="" style="rounded=0;orthogonalLoop=1;jettySize=auto;html=1;endArrow=none;endFill=0;exitX=0;exitY=0.5;exitDx=0;exitDy=0;" parent="1" source="Oh-3adqw7K7T8iNf7OZb-18" target="Oh-3adqw7K7T8iNf7OZb-29" edge="1">
          <mxGeometry relative="1" as="geometry">
            <mxPoint x="495" y="340" as="sourcePoint" />
          </mxGeometry>
        </mxCell>
        <mxCell id="Oh-3adqw7K7T8iNf7OZb-28" value="" style="rounded=0;orthogonalLoop=1;jettySize=auto;html=1;endArrow=halfCircle;endFill=0;entryX=0.5;entryY=0.5;entryDx=0;entryDy=0;endSize=6;strokeWidth=1;exitX=0.5;exitY=0;exitDx=0;exitDy=0;horizontal=0;" parent="1" source="Oh-3adqw7K7T8iNf7OZb-12" target="Oh-3adqw7K7T8iNf7OZb-29" edge="1">
          <mxGeometry relative="1" as="geometry">
            <mxPoint x="535" y="340" as="sourcePoint" />
          </mxGeometry>
        </mxCell>
        <mxCell id="Oh-3adqw7K7T8iNf7OZb-30" value="Verify" style="edgeLabel;html=1;align=center;verticalAlign=middle;resizable=0;points=[];" parent="Oh-3adqw7K7T8iNf7OZb-28" vertex="1" connectable="0">
          <mxGeometry x="0.2049" y="-2" relative="1" as="geometry">
            <mxPoint as="offset" />
          </mxGeometry>
        </mxCell>
        <mxCell id="Oh-3adqw7K7T8iNf7OZb-29" value="" style="ellipse;whiteSpace=wrap;html=1;fontFamily=Helvetica;fontSize=12;fontColor=#000000;align=center;strokeColor=#000000;fillColor=#ffffff;points=[];aspect=fixed;resizable=0;" parent="1" vertex="1">
          <mxGeometry x="207" y="228" width="10" height="10" as="geometry" />
        </mxCell>
        <mxCell id="Oh-3adqw7K7T8iNf7OZb-31" value="" style="rounded=0;orthogonalLoop=1;jettySize=auto;html=1;endArrow=none;endFill=0;exitX=0.75;exitY=0;exitDx=0;exitDy=0;" parent="1" source="Oh-3adqw7K7T8iNf7OZb-18" target="Oh-3adqw7K7T8iNf7OZb-33" edge="1">
          <mxGeometry relative="1" as="geometry">
            <mxPoint x="504" y="415" as="sourcePoint" />
          </mxGeometry>
        </mxCell>
        <mxCell id="Oh-3adqw7K7T8iNf7OZb-32" value="" style="rounded=0;orthogonalLoop=1;jettySize=auto;html=1;endArrow=halfCircle;endFill=0;entryX=0.5;entryY=0.5;entryDx=0;entryDy=0;endSize=6;strokeWidth=1;exitX=0;exitY=1;exitDx=0;exitDy=0;" parent="1" source="Oh-3adqw7K7T8iNf7OZb-14" target="Oh-3adqw7K7T8iNf7OZb-33" edge="1">
          <mxGeometry relative="1" as="geometry">
            <mxPoint x="535" y="340" as="sourcePoint" />
          </mxGeometry>
        </mxCell>
        <mxCell id="Oh-3adqw7K7T8iNf7OZb-34" value="Verify" style="edgeLabel;html=1;align=center;verticalAlign=middle;resizable=0;points=[];" parent="Oh-3adqw7K7T8iNf7OZb-32" vertex="1" connectable="0">
          <mxGeometry x="-0.0058" y="-1" relative="1" as="geometry">
            <mxPoint x="0.27" y="14.21" as="offset" />
          </mxGeometry>
        </mxCell>
        <mxCell id="Oh-3adqw7K7T8iNf7OZb-33" value="" style="ellipse;whiteSpace=wrap;html=1;fontFamily=Helvetica;fontSize=12;fontColor=#000000;align=center;strokeColor=#000000;fillColor=#ffffff;points=[];aspect=fixed;resizable=0;" parent="1" vertex="1">
          <mxGeometry x="677" y="214" width="10" height="10" as="geometry" />
        </mxCell>
        <mxCell id="Oh-3adqw7K7T8iNf7OZb-42" value="" style="rounded=0;orthogonalLoop=1;jettySize=auto;html=1;endArrow=none;endFill=0;exitX=0.5;exitY=0;exitDx=0;exitDy=0;" parent="1" source="Oh-3adqw7K7T8iNf7OZb-39" target="Oh-3adqw7K7T8iNf7OZb-44" edge="1">
          <mxGeometry relative="1" as="geometry">
            <mxPoint x="481" y="391" as="sourcePoint" />
          </mxGeometry>
        </mxCell>
        <mxCell id="Oh-3adqw7K7T8iNf7OZb-43" value="" style="rounded=0;orthogonalLoop=1;jettySize=auto;html=1;endArrow=halfCircle;endFill=0;entryX=0.5;entryY=0.5;entryDx=0;entryDy=0;endSize=6;strokeWidth=1;exitX=0.5;exitY=1;exitDx=0;exitDy=0;" parent="1" source="Oh-3adqw7K7T8iNf7OZb-23" target="Oh-3adqw7K7T8iNf7OZb-44" edge="1">
          <mxGeometry relative="1" as="geometry">
            <mxPoint x="521" y="391" as="sourcePoint" />
          </mxGeometry>
        </mxCell>
        <mxCell id="Oh-3adqw7K7T8iNf7OZb-45" value="Update" style="edgeLabel;html=1;align=center;verticalAlign=middle;resizable=0;points=[];" parent="Oh-3adqw7K7T8iNf7OZb-43" vertex="1" connectable="0">
          <mxGeometry x="0.1208" y="3" relative="1" as="geometry">
            <mxPoint x="-8.690000000000012" y="-0.12999999999999545" as="offset" />
          </mxGeometry>
        </mxCell>
        <mxCell id="Oh-3adqw7K7T8iNf7OZb-44" value="" style="ellipse;whiteSpace=wrap;html=1;fontFamily=Helvetica;fontSize=12;fontColor=#000000;align=center;strokeColor=#000000;fillColor=#ffffff;points=[];aspect=fixed;resizable=0;" parent="1" vertex="1">
          <mxGeometry x="862" y="209" width="10" height="10" as="geometry" />
        </mxCell>
        <mxCell id="ww1-IJT1YyGTjQz6Kq0K-8" value="" style="rounded=0;orthogonalLoop=1;jettySize=auto;html=1;endArrow=none;endFill=0;exitX=1;exitY=0.5;exitDx=0;exitDy=0;" parent="1" source="ww1-IJT1YyGTjQz6Kq0K-3" target="ww1-IJT1YyGTjQz6Kq0K-10" edge="1">
          <mxGeometry relative="1" as="geometry">
            <mxPoint x="502" y="437" as="sourcePoint" />
          </mxGeometry>
        </mxCell>
        <mxCell id="ww1-IJT1YyGTjQz6Kq0K-14" value="" style="rounded=0;orthogonalLoop=1;jettySize=auto;html=1;endArrow=none;endFill=0;exitX=1;exitY=0.75;exitDx=0;exitDy=0;" parent="1" source="Oh-3adqw7K7T8iNf7OZb-16" target="ww1-IJT1YyGTjQz6Kq0K-16" edge="1">
          <mxGeometry relative="1" as="geometry">
            <mxPoint x="502" y="443" as="sourcePoint" />
          </mxGeometry>
        </mxCell>
        <mxCell id="ww1-IJT1YyGTjQz6Kq0K-66" value="" style="rounded=0;orthogonalLoop=1;jettySize=auto;html=1;endArrow=none;endFill=0;fontColor=#FFFFFF;exitX=0;exitY=0.75;exitDx=0;exitDy=0;" parent="1" source="ww1-IJT1YyGTjQz6Kq0K-64" target="ww1-IJT1YyGTjQz6Kq0K-68" edge="1">
          <mxGeometry relative="1" as="geometry">
            <mxPoint x="572" y="513" as="sourcePoint" />
          </mxGeometry>
        </mxCell>
        <mxCell id="ww1-IJT1YyGTjQz6Kq0K-67" value="" style="rounded=0;orthogonalLoop=1;jettySize=auto;html=1;endArrow=halfCircle;endFill=0;entryX=0.5;entryY=0.5;entryDx=0;entryDy=0;endSize=6;strokeWidth=1;fontColor=#FFFFFF;exitX=1;exitY=0.5;exitDx=0;exitDy=0;" parent="1" source="ww1-IJT1YyGTjQz6Kq0K-56" target="ww1-IJT1YyGTjQz6Kq0K-68" edge="1">
          <mxGeometry relative="1" as="geometry">
            <mxPoint x="612" y="513" as="sourcePoint" />
          </mxGeometry>
        </mxCell>
        <mxCell id="ww1-IJT1YyGTjQz6Kq0K-68" value="" style="ellipse;whiteSpace=wrap;html=1;fontFamily=Helvetica;fontSize=12;fontColor=#000000;align=center;strokeColor=#000000;fillColor=#ffffff;points=[];aspect=fixed;resizable=0;labelBackgroundColor=#000000;" parent="1" vertex="1">
          <mxGeometry x="536" y="592" width="10" height="10" as="geometry" />
        </mxCell>
        <mxCell id="ww1-IJT1YyGTjQz6Kq0K-69" value="Update" style="edgeLabel;html=1;align=center;verticalAlign=middle;resizable=0;points=[];" parent="1" vertex="1" connectable="0">
          <mxGeometry x="489.0040943430879" y="584.0026414882032" as="geometry">
            <mxPoint x="1" y="-1" as="offset" />
          </mxGeometry>
        </mxCell>
        <mxCell id="ww1-IJT1YyGTjQz6Kq0K-70" value="" style="rounded=0;orthogonalLoop=1;jettySize=auto;html=1;endArrow=none;endFill=0;fontColor=#FFFFFF;exitX=0.423;exitY=1.016;exitDx=0;exitDy=0;exitPerimeter=0;" parent="1" source="ww1-IJT1YyGTjQz6Kq0K-54" target="ww1-IJT1YyGTjQz6Kq0K-72" edge="1">
          <mxGeometry relative="1" as="geometry">
            <mxPoint x="568" y="543" as="sourcePoint" />
          </mxGeometry>
        </mxCell>
        <mxCell id="ww1-IJT1YyGTjQz6Kq0K-71" value="" style="rounded=0;orthogonalLoop=1;jettySize=auto;html=1;endArrow=halfCircle;endFill=0;entryX=0.5;entryY=0.5;entryDx=0;entryDy=0;endSize=6;strokeWidth=1;fontColor=#FFFFFF;exitX=0.25;exitY=1;exitDx=0;exitDy=0;" parent="1" source="ww1-IJT1YyGTjQz6Kq0K-64" target="ww1-IJT1YyGTjQz6Kq0K-72" edge="1">
          <mxGeometry relative="1" as="geometry">
            <mxPoint x="608" y="543" as="sourcePoint" />
          </mxGeometry>
        </mxCell>
        <mxCell id="ww1-IJT1YyGTjQz6Kq0K-72" value="" style="ellipse;whiteSpace=wrap;html=1;fontFamily=Helvetica;fontSize=12;fontColor=#000000;align=center;strokeColor=#000000;fillColor=#ffffff;points=[];aspect=fixed;resizable=0;labelBackgroundColor=#000000;" parent="1" vertex="1">
          <mxGeometry x="392" y="693" width="10" height="10" as="geometry" />
        </mxCell>
        <mxCell id="ww1-IJT1YyGTjQz6Kq0K-73" value="Update" style="edgeLabel;html=1;align=center;verticalAlign=middle;resizable=0;points=[];" parent="1" vertex="1" connectable="0">
          <mxGeometry x="357.0040943430879" y="675.0026414882032" as="geometry">
            <mxPoint x="1" y="-1" as="offset" />
          </mxGeometry>
        </mxCell>
      </root>
    </mxGraphModel>
  </diagram>
</mxfile>
